<svg id="Layer_1" data-name="Layer 1" xmlns="http://www.w3.org/2000/svg" xmlns:xlink="http://www.w3.org/1999/xlink" viewBox="0 0 2000 2000">
  <defs>
    <style>
      .cls-1 {
        fill: url(#linear-gradient);
      }

      .cls-2 {
        fill: url(#linear-gradient-2);
      }

      .cls-3 {
        fill: url(#linear-gradient-3);
      }

      .cls-4 {
        fill: url(#linear-gradient-4);
      }

      .cls-5 {
        fill: url(#linear-gradient-5);
      }

      .cls-6 {
        fill: url(#linear-gradient-6);
      }

      .cls-7 {
        fill: url(#linear-gradient-7);
      }

      .cls-8 {
        fill: url(#linear-gradient-8);
      }

      .cls-9 {
        fill: url(#linear-gradient-9);
      }

      .cls-10 {
        fill: url(#linear-gradient-10);
      }

      .cls-11 {
        fill: url(#linear-gradient-11);
      }

      .cls-12 {
        fill: url(#linear-gradient-12);
      }

      .cls-13 {
        fill: url(#linear-gradient-13);
      }

      .cls-14 {
        fill: url(#linear-gradient-14);
      }

      .cls-15 {
        fill: url(#linear-gradient-15);
      }

      .cls-16 {
        fill: url(#linear-gradient-16);
      }

      .cls-17 {
        fill: url(#linear-gradient-17);
      }

      .cls-18 {
        fill: url(#linear-gradient-18);
      }

      .cls-19 {
        fill: url(#linear-gradient-19);
      }

      .cls-20 {
        fill: url(#linear-gradient-20);
      }

      .cls-21 {
        fill: url(#linear-gradient-21);
      }

      .cls-22 {
        fill: url(#linear-gradient-22);
      }

      .cls-23 {
        fill: url(#linear-gradient-23);
      }

      .cls-24 {
        fill: url(#linear-gradient-24);
      }

      .cls-25 {
        fill: url(#linear-gradient-25);
      }

      .cls-26 {
        fill: url(#linear-gradient-26);
      }

      .cls-27 {
        fill: url(#linear-gradient-27);
      }

      .cls-28 {
        fill: url(#linear-gradient-28);
      }

      .cls-29 {
        fill: url(#linear-gradient-29);
      }

      .cls-30 {
        fill: url(#linear-gradient-30);
      }

      .cls-31 {
        fill: url(#linear-gradient-31);
      }

      .cls-32 {
        fill: url(#linear-gradient-32);
      }

      .cls-33 {
        fill: url(#linear-gradient-33);
      }

      .cls-34 {
        fill: url(#linear-gradient-34);
      }

      .cls-35 {
        fill: url(#linear-gradient-35);
      }

      .cls-36 {
        fill: url(#linear-gradient-36);
      }

      .cls-37 {
        fill: url(#linear-gradient-37);
      }

      .cls-38 {
        fill: url(#linear-gradient-38);
      }

      .cls-39 {
        fill: url(#linear-gradient-39);
      }

      .cls-40 {
        fill: url(#linear-gradient-40);
      }

      .cls-41 {
        fill: url(#linear-gradient-41);
      }

      .cls-42 {
        fill: url(#linear-gradient-42);
      }

      .cls-43 {
        fill: url(#linear-gradient-43);
      }

      .cls-44 {
        fill: url(#linear-gradient-44);
      }

      .cls-45 {
        fill: url(#linear-gradient-45);
      }

      .cls-46 {
        fill: url(#linear-gradient-46);
      }

      .cls-47 {
        fill: url(#linear-gradient-47);
      }

      .cls-48 {
        fill: url(#linear-gradient-48);
      }

      .cls-49 {
        fill: url(#linear-gradient-49);
      }

      .cls-50 {
        fill: url(#linear-gradient-50);
      }

      .cls-51 {
        fill: url(#linear-gradient-51);
      }

      .cls-52 {
        fill: url(#linear-gradient-52);
      }

      .cls-53 {
        fill: url(#linear-gradient-53);
      }

      .cls-54 {
        fill: url(#linear-gradient-54);
      }

      .cls-55 {
        fill: url(#linear-gradient-55);
      }

      .cls-56 {
        fill: url(#linear-gradient-56);
      }

      .cls-57 {
        fill: url(#linear-gradient-57);
      }

      .cls-58 {
        font-size: 494.28px;
        letter-spacing: 0.09em;
      }

      .cls-58, .cls-80 {
        fill: #febf01;
      }

      .cls-58, .cls-60, .cls-71 {
        font-family: CHICKENPieHeight, CHICKEN Pie Height;
      }

      .cls-59, .cls-69 {
        fill: #006aff;
      }

      .cls-59 {
        letter-spacing: 0.09em;
      }

      .cls-60 {
        font-size: 494.28px;
        letter-spacing: 0.09em;
      }

      .cls-60, .cls-67 {
        fill: #ff206c;
      }

      .cls-61 {
        fill: #ff5b06;
      }

      .cls-61, .cls-63, .cls-65, .cls-67, .cls-69 {
        fill-rule: evenodd;
      }

      .cls-62 {
        fill: #ffb72d;
      }

      .cls-63, .cls-72 {
        fill: #00b778;
      }

      .cls-64 {
        fill: #008f57;
      }

      .cls-65 {
        fill: #ff9b2d;
      }

      .cls-66 {
        fill: #ffd741;
      }

      .cls-68 {
        fill: #e40048;
      }

      .cls-70, .cls-71 {
        fill: #004ebd;
      }

      .cls-71 {
        font-size: 538.77px;
      }

      .cls-73 {
        fill: #fe209d;
      }

      .cls-74 {
        letter-spacing: 0em;
      }

      .cls-75 {
        fill: #4f3e23;
      }

      .cls-76 {
        fill: #e8a92e;
      }

      .cls-77 {
        fill: #ffc024;
      }

      .cls-78 {
        fill: #fff;
      }

      .cls-79 {
        fill: #ffac27;
      }
    </style>
    <linearGradient id="linear-gradient" x1="1198.2" y1="1282.91" x2="1236.31" y2="1282.91" gradientTransform="matrix(0.55, 0.83, -0.83, 0.55, 1489.98, -803.89)" gradientUnits="userSpaceOnUse">
      <stop offset="0" stop-color="#f44274"/>
      <stop offset="1" stop-color="#e51f9a"/>
    </linearGradient>
    <linearGradient id="linear-gradient-2" x1="2161.12" y1="4198.11" x2="2201.63" y2="4198.11" gradientTransform="translate(5847.32 998.91) rotate(119.72)" gradientUnits="userSpaceOnUse">
      <stop offset="0" stop-color="#6dd0e7"/>
      <stop offset="1" stop-color="#01a7db"/>
    </linearGradient>
    <linearGradient id="linear-gradient-3" x1="1184.47" y1="919.49" x2="1211.02" y2="919.49" xlink:href="#linear-gradient"/>
    <linearGradient id="linear-gradient-4" x1="1377.3" y1="1115.33" x2="1393.94" y2="1115.33" gradientTransform="matrix(0.55, 0.83, -0.83, 0.55, 1489.98, -803.89)" gradientUnits="userSpaceOnUse">
      <stop offset="0" stop-color="#b5188d"/>
      <stop offset="1" stop-color="#4e69ae"/>
    </linearGradient>
    <linearGradient id="linear-gradient-5" x1="1402.94" y1="968.29" x2="1450.53" y2="968.29" gradientTransform="matrix(0.55, 0.83, -0.83, 0.55, 1489.98, -803.89)" xlink:href="#linear-gradient-2"/>
    <linearGradient id="linear-gradient-6" x1="1513.91" y1="804.12" x2="1552.96" y2="804.12" gradientTransform="matrix(0.55, 0.83, -0.83, 0.55, 1489.98, -803.89)" gradientUnits="userSpaceOnUse">
      <stop offset="0" stop-color="#b4df86"/>
      <stop offset="1" stop-color="#84c743"/>
    </linearGradient>
    <linearGradient id="linear-gradient-7" x1="1087.31" y1="1101.82" x2="1132.14" y2="1101.82" xlink:href="#linear-gradient"/>
    <linearGradient id="linear-gradient-8" x1="1307.93" y1="904.73" x2="1343.1" y2="904.73" gradientTransform="matrix(0.55, 0.83, -0.83, 0.55, 1489.98, -803.89)" xlink:href="#linear-gradient-2"/>
    <linearGradient id="linear-gradient-9" x1="1497.69" y1="933.55" x2="1525.75" y2="933.55" gradientTransform="matrix(0.55, 0.83, -0.83, 0.55, 1489.98, -803.89)" gradientUnits="userSpaceOnUse">
      <stop offset="0" stop-color="#be1e68"/>
      <stop offset="1" stop-color="#b5188d"/>
    </linearGradient>
    <linearGradient id="linear-gradient-10" x1="1178.39" y1="1033.39" x2="1224.07" y2="1033.39" gradientTransform="matrix(0.55, 0.83, -0.83, 0.55, 1489.98, -803.89)" gradientUnits="userSpaceOnUse">
      <stop offset="0" stop-color="#f8b54a"/>
      <stop offset="1" stop-color="#f8a629"/>
    </linearGradient>
    <linearGradient id="linear-gradient-11" x1="1216.9" y1="968.54" x2="1253.99" y2="968.54" xlink:href="#linear-gradient-6"/>
    <linearGradient id="linear-gradient-12" x1="1540.8" y1="862.74" x2="1590.32" y2="862.74" xlink:href="#linear-gradient-10"/>
    <linearGradient id="linear-gradient-13" x1="1243.62" y1="1095.93" x2="1271.24" y2="1095.93" xlink:href="#linear-gradient-9"/>
    <linearGradient id="linear-gradient-14" x1="1260.06" y1="1039.09" x2="1297.14" y2="1039.09" gradientTransform="matrix(0.55, 0.83, -0.83, 0.55, 1489.98, -803.89)" gradientUnits="userSpaceOnUse">
      <stop offset="0" stop-color="#f71873"/>
      <stop offset="1" stop-color="#f8a629"/>
    </linearGradient>
    <linearGradient id="linear-gradient-15" x1="1239.46" y1="837.45" x2="1268.79" y2="837.45" gradientTransform="matrix(0.55, 0.83, -0.83, 0.55, 1489.98, -803.89)" gradientUnits="userSpaceOnUse">
      <stop offset="0" stop-color="#fbe422"/>
      <stop offset="1" stop-color="#c8d92b"/>
    </linearGradient>
    <linearGradient id="linear-gradient-16" x1="1284.98" y1="919.13" x2="1317.17" y2="919.13" xlink:href="#linear-gradient-9"/>
    <linearGradient id="linear-gradient-17" x1="1375.71" y1="1154.04" x2="1425.29" y2="1154.04" xlink:href="#linear-gradient-6"/>
    <linearGradient id="linear-gradient-18" x1="1458.36" y1="810.68" x2="1499.43" y2="810.68" xlink:href="#linear-gradient-14"/>
    <linearGradient id="linear-gradient-19" x1="1309.93" y1="811.96" x2="1340.48" y2="811.96" gradientTransform="matrix(0.55, 0.83, -0.83, 0.55, 1489.98, -803.89)" gradientUnits="userSpaceOnUse">
      <stop offset="0" stop-color="#f71873"/>
      <stop offset="1" stop-color="#c6211b"/>
    </linearGradient>
    <linearGradient id="linear-gradient-20" x1="1425.45" y1="892.49" x2="1463.91" y2="892.49" xlink:href="#linear-gradient-19"/>
    <linearGradient id="linear-gradient-21" x1="6580.06" y1="3799.12" x2="6588.93" y2="3799.12" gradientTransform="translate(4899.59 7362.99) rotate(-150.01)" xlink:href="#linear-gradient-15"/>
    <linearGradient id="linear-gradient-22" x1="6142.93" y1="4024.53" x2="6150.21" y2="4024.53" gradientTransform="translate(4899.59 7362.99) rotate(-150.01)" xlink:href="#linear-gradient-2"/>
    <linearGradient id="linear-gradient-23" x1="6112.84" y1="3996.44" x2="6121.29" y2="3996.44" gradientTransform="translate(4899.59 7362.99) rotate(-150.01)" xlink:href="#linear-gradient-9"/>
    <linearGradient id="linear-gradient-24" x1="6306.8" y1="3572.58" x2="6317.89" y2="3572.58" gradientTransform="translate(4899.59 7362.99) rotate(-150.01)" xlink:href="#linear-gradient-2"/>
    <linearGradient id="linear-gradient-25" x1="6302.93" y1="3611.65" x2="6310.88" y2="3611.65" gradientTransform="translate(4899.59 7362.99) rotate(-150.01)" xlink:href="#linear-gradient"/>
    <linearGradient id="linear-gradient-26" x1="6278.74" y1="3604.44" x2="6289.5" y2="3604.44" gradientTransform="translate(4899.59 7362.99) rotate(-150.01)" xlink:href="#linear-gradient-4"/>
    <linearGradient id="linear-gradient-27" x1="6235.65" y1="3638.5" x2="6241.75" y2="3638.5" gradientTransform="translate(4899.59 7362.99) rotate(-150.01)" xlink:href="#linear-gradient-9"/>
    <linearGradient id="linear-gradient-28" x1="6181.09" y1="3612.88" x2="6185.63" y2="3612.88" gradientTransform="translate(4899.59 7362.99) rotate(-150.01)" xlink:href="#linear-gradient-10"/>
    <linearGradient id="linear-gradient-29" x1="6318.25" y1="3755.34" x2="6325.25" y2="3755.34" gradientTransform="translate(4899.59 7362.99) rotate(-150.01)" xlink:href="#linear-gradient-9"/>
    <linearGradient id="linear-gradient-30" x1="6263.71" y1="3714.12" x2="6272.72" y2="3714.12" gradientTransform="translate(4899.59 7362.99) rotate(-150.01)" xlink:href="#linear-gradient-2"/>
    <linearGradient id="linear-gradient-31" x1="6314.39" y1="3858.07" x2="6323.55" y2="3858.07" gradientTransform="translate(4899.59 7362.99) rotate(-150.01)" xlink:href="#linear-gradient-14"/>
    <linearGradient id="linear-gradient-32" x1="6309.11" y1="3809.8" x2="6319.89" y2="3809.8" gradientTransform="translate(4899.59 7362.99) rotate(-150.01)" xlink:href="#linear-gradient-15"/>
    <linearGradient id="linear-gradient-33" x1="6324.85" y1="3790.05" x2="6331.02" y2="3790.05" gradientTransform="translate(4899.59 7362.99) rotate(-150.01)" xlink:href="#linear-gradient-9"/>
    <linearGradient id="linear-gradient-34" x1="6347.65" y1="3762.14" x2="6357.66" y2="3762.14" gradientTransform="translate(4899.59 7362.99) rotate(-150.01)" xlink:href="#linear-gradient-2"/>
    <linearGradient id="linear-gradient-35" x1="6530.01" y1="3701.49" x2="6538.19" y2="3701.49" gradientTransform="translate(4899.59 7362.99) rotate(-150.01)" xlink:href="#linear-gradient-15"/>
    <linearGradient id="linear-gradient-36" x1="6464.35" y1="3695.27" x2="6471.82" y2="3695.27" gradientTransform="translate(4899.59 7362.99) rotate(-150.01)" xlink:href="#linear-gradient-19"/>
    <linearGradient id="linear-gradient-37" x1="6431.69" y1="3684.62" x2="6437.67" y2="3684.62" gradientTransform="translate(4899.59 7362.99) rotate(-150.01)" xlink:href="#linear-gradient-14"/>
    <linearGradient id="linear-gradient-38" x1="6365.21" y1="3748.07" x2="6371.54" y2="3748.07" gradientTransform="translate(4899.59 7362.99) rotate(-150.01)" xlink:href="#linear-gradient-2"/>
    <linearGradient id="linear-gradient-39" x1="6119.07" y1="3768.35" x2="6126.66" y2="3768.35" gradientTransform="translate(4899.59 7362.99) rotate(-150.01)" xlink:href="#linear-gradient-10"/>
    <linearGradient id="linear-gradient-40" x1="6062.08" y1="3762.52" x2="6070.32" y2="3762.52" gradientTransform="translate(4899.59 7362.99) rotate(-150.01)" xlink:href="#linear-gradient-14"/>
    <linearGradient id="linear-gradient-41" x1="6053.64" y1="3860.04" x2="6060.55" y2="3860.04" gradientTransform="translate(4899.59 7362.99) rotate(-150.01)" xlink:href="#linear-gradient-9"/>
    <linearGradient id="linear-gradient-42" x1="6380.82" y1="3752.29" x2="6387.21" y2="3752.29" gradientTransform="translate(4899.59 7362.99) rotate(-150.01)" xlink:href="#linear-gradient-14"/>
    <linearGradient id="linear-gradient-43" x1="6381.02" y1="3752.1" x2="6387.21" y2="3752.1" gradientTransform="translate(4899.59 7362.99) rotate(-150.01)" xlink:href="#linear-gradient-14"/>
    <linearGradient id="linear-gradient-44" x1="6443.04" y1="3711.47" x2="6451.13" y2="3711.47" gradientTransform="translate(4899.59 7362.99) rotate(-150.01)" xlink:href="#linear-gradient-10"/>
    <linearGradient id="linear-gradient-45" x1="6443.25" y1="3711.22" x2="6451.13" y2="3711.22" gradientTransform="translate(4899.59 7362.99) rotate(-150.01)" xlink:href="#linear-gradient-10"/>
    <linearGradient id="linear-gradient-46" x1="6386.99" y1="3673.96" x2="6394.9" y2="3673.96" gradientTransform="translate(4899.59 7362.99) rotate(-150.01)" xlink:href="#linear-gradient-2"/>
    <linearGradient id="linear-gradient-47" x1="6386.99" y1="3673.79" x2="6394.55" y2="3673.79" gradientTransform="translate(4899.59 7362.99) rotate(-150.01)" xlink:href="#linear-gradient-2"/>
    <linearGradient id="linear-gradient-48" x1="6113.4" y1="3908.97" x2="6119.84" y2="3908.97" gradientTransform="translate(4899.59 7362.99) rotate(-150.01)" xlink:href="#linear-gradient"/>
    <linearGradient id="linear-gradient-49" x1="6127.24" y1="3847.47" x2="6135.8" y2="3847.47" gradientTransform="translate(4899.59 7362.99) rotate(-150.01)" xlink:href="#linear-gradient-2"/>
    <linearGradient id="linear-gradient-50" x1="6143.59" y1="3810.44" x2="6155.15" y2="3810.44" gradientTransform="translate(4899.59 7362.99) rotate(-150.01)" xlink:href="#linear-gradient-10"/>
    <linearGradient id="linear-gradient-51" x1="6410.02" y1="3724.03" x2="6416.96" y2="3724.03" gradientTransform="translate(4899.59 7362.99) rotate(-150.01)" xlink:href="#linear-gradient-6"/>
    <linearGradient id="linear-gradient-52" x1="6348.02" y1="3713.64" x2="6354.95" y2="3713.64" gradientTransform="translate(4899.59 7362.99) rotate(-150.01)" xlink:href="#linear-gradient-19"/>
    <linearGradient id="linear-gradient-53" x1="6330.18" y1="3656.01" x2="6338.33" y2="3656.01" gradientTransform="translate(4899.59 7362.99) rotate(-150.01)" xlink:href="#linear-gradient-15"/>
    <linearGradient id="linear-gradient-54" x1="5715.34" y1="1099.9" x2="5818.68" y2="1099.9" gradientTransform="matrix(-0.84, -0.54, -0.54, 0.84, 6840.8, 3211.02)" xlink:href="#linear-gradient-2"/>
    <linearGradient id="linear-gradient-55" x1="5737.32" y1="1062.93" x2="5804.31" y2="1062.93" gradientTransform="matrix(-0.84, -0.54, -0.54, 0.84, 6840.8, 3211.02)" xlink:href="#linear-gradient-6"/>
    <linearGradient id="linear-gradient-56" x1="5773.6" y1="1177.39" x2="5744.81" y2="1116.63" gradientTransform="matrix(-0.84, -0.54, -0.54, 0.84, 6840.8, 3211.02)" xlink:href="#linear-gradient-2"/>
    <linearGradient id="linear-gradient-57" x1="5739.97" y1="1140.1" x2="5796.58" y2="1125.34" gradientTransform="matrix(-0.84, -0.54, -0.54, 0.84, 6840.8, 3211.02)" xlink:href="#linear-gradient-6"/>
  </defs>
  <g>
    <g id="confetti">
      <path class="cls-1" d="M1067.93,914.06l15.17-14.56s7.28,14.84,26.73,23.48l-15.18,14.56"/>
      <path class="cls-2" d="M1114.62,832.34c-9.18-21.25-2.75-39.06-2.75-39.06l13.63-1.36s-6.42,17.81,2.75,39.06Z"/>
      <path class="cls-3" d="M1377.92,714.9c-8-11-6.75-21.75-6.75-21.75l14.06-3.68s-1.26,10.78,6.75,21.76Z"/>
      <path class="cls-4" d="M1308.51,970a35.74,35.74,0,0,1,16.56-14.88l9.61,9A35.74,35.74,0,0,0,1318.12,979Z"/>
      <path class="cls-5" d="M1453.4,940c-7.27-22.43,1-40,1-40l25.88.56s-8.3,17.62-1,40Z"/>
      <path class="cls-6" d="M1683,906.86a59.25,59.25,0,0,0-18.49,34.29l-22.16-10.08a59.29,59.29,0,0,1,18.49-34.29"/>
      <path class="cls-7" d="M1162.92,714.07s16.67,10.18,40.92,7.71l-5,22.29c-24.25,2.47-40.91-7.71-40.91-7.71l5-22.29"/>
      <path class="cls-8" d="M1471.85,816.78c-18.23-5.36-26.63-17.55-26.63-17.55l11.34-14.51s8.4,12.2,26.63,17.56Z"/>
      <path class="cls-9" d="M1522.4,978.22A55.53,55.53,0,0,1,1546.7,953L1563,966.18a55.58,55.58,0,0,0-24.3,25.28Z"/>
      <path class="cls-10" d="M1280.84,789.13c-12.49-19.39-9.22-37.63-9.22-37.63l24.31-5s-3.27,18.25,9.23,37.63Z"/>
      <path class="cls-11" d="M1339.25,770.93a62.1,62.1,0,0,1,22.89-33l21.33,12.47a62.08,62.08,0,0,0-22.9,33Z"/>
      <path class="cls-12" d="M1650.66,995c-26.72,2.08-44.71-9.54-44.71-9.54l6.17-24.36s18,11.62,44.71,9.54Z"/>
      <path class="cls-13" d="M1274.84,860.59c-14.54-2.25-22.38-10.7-22.38-10.7l6.91-12.19s7.85,8.45,22.38,10.7Z"/>
      <path class="cls-14" d="M1326.35,854.63c-15.66-13.59-17.71-29.72-17.71-29.72l19.21-9.64s2.05,16.13,17.7,29.72Z"/>
      <path class="cls-15" d="M1484,718.24c-18.59-16-12.16-25.57-12.16-25.57l8.25-3.91s-6.42,9.62,12.17,25.57Z"/>
      <path class="cls-16" d="M1427.94,800.88a40.55,40.55,0,0,1,3.91-27.35l17.68,2.13a40.55,40.55,0,0,0-3.91,27.35Z"/>
      <path class="cls-17" d="M1314.3,1019.08c-26.46-.55-42.79-13.69-42.79-13.69l8.85-23.32s16.33,13.15,42.79,13.7Z"/>
      <path class="cls-18" d="M1654.58,883.56c-21.34,4.08-57.81-1.85-57.81-1.85l3-11.19s36.47,5.94,57.81,1.86"/>
      <path class="cls-19" d="M1556.56,757.78a51.85,51.85,0,0,1-30.28-.21l.14-16.5a51.85,51.85,0,0,0,30.28.21"/>
      <path class="cls-20" d="M1553.89,870.27l-48.61,23.09c1.81-.85,18.62,24.43,20.86,23.37l48.6-23.09c-1.8.86-18.62-24.43-20.85-23.37Z"/>
      <path class="cls-21" d="M1093.71,777.57a13,13,0,0,1,6.64,4.65l-3,3.62a12.93,12.93,0,0,0-6.63-4.66Z"/>
      <path class="cls-22" d="M1591,806.62a11,11,0,0,0-6.37.66l-.42-3.47a11,11,0,0,1,6.37-.66"/>
      <path class="cls-23" d="M1594.38,844a13.4,13.4,0,0,1,7.25-3.31l2.13,4a13.3,13.3,0,0,0-7.24,3.31Z"/>
      <path class="cls-24" d="M1211.52,1114.08a16.87,16.87,0,0,1,9.6-2.61l1.69,5.23"/>
      <path class="cls-25" d="M1237.81,1082.54a12.74,12.74,0,0,1,6.81-3.45l2.23,3.71a12.74,12.74,0,0,0-6.81,3.45Z"/>
      <path class="cls-26" d="M1258.17,1095.27a13.54,13.54,0,0,1,5.24,7.22l-4.67,2.86a13.56,13.56,0,0,0-5.23-7.23Z"/>
      <path class="cls-27" d="M1312.09,1092.13a9.19,9.19,0,0,1,5.35-.16l.1,2.91a9.15,9.15,0,0,0-5.35.17Z"/>
      <path class="cls-28" d="M1352.2,1141.21a7.63,7.63,0,0,1-1.31,5l-3.23-.71a7.71,7.71,0,0,0,1.32-5Z"/>
      <g>
        <path class="cls-29" d="M1304.72,947.49a11.73,11.73,0,0,1-2,7.66l-5-1.06a11.73,11.73,0,0,0,2-7.66Z"/>
        <path class="cls-30" d="M1322.51,1012.12a13.75,13.75,0,0,1,7.81-2l1.27,4.26a13.65,13.65,0,0,0-7.81,2Z"/>
      </g>
      <g>
        <path class="cls-31" d="M1352.79,859.17a13.82,13.82,0,0,1,7.22,4.59l-3,3.93a13.76,13.76,0,0,0-7.21-4.59Z"/>
        <path class="cls-32" d="M1332.09,902.5a16.3,16.3,0,0,1,8.56,5.37l-3.47,4.67a16.35,16.35,0,0,0-8.56-5.38Z"/>
        <path class="cls-33" d="M1316.43,914.74a10.51,10.51,0,0,1-1.93,6.84l-4.42-1.05a10.51,10.51,0,0,0,1.93-6.84Z"/>
        <path class="cls-34" d="M1279.74,924.76a12.62,12.62,0,0,1,1.81,8.42l-5.44,1a12.59,12.59,0,0,0-1.82-8.42Z"/>
      </g>
      <g>
        <path class="cls-35" d="M1087.87,887.67a13.35,13.35,0,0,1,7.31,3.63l-2.34,4a13.4,13.4,0,0,0-7.31-3.63Z"/>
        <path class="cls-36" d="M1148.07,926.16a12.28,12.28,0,0,1-1.89,8.09l-5.23-1a12.24,12.24,0,0,0,1.89-8.09Z"/>
        <path class="cls-37" d="M1165.91,953.46a9.28,9.28,0,0,1,5.33,1.4l-.9,2.9a9.23,9.23,0,0,0-5.33-1.39Z"/>
        <path class="cls-38" d="M1254.43,932.39a9.55,9.55,0,0,1,5.55-.21l.14,3a9.5,9.5,0,0,0-5.55.22Z"/>
      </g>
      <g>
        <path class="cls-39" d="M1482.11,1035.36a10.18,10.18,0,0,1,.36,7l-4.5.2a10.14,10.14,0,0,0-.36-7Z"/>
        <path class="cls-40" d="M1527.91,1068.44a10.5,10.5,0,0,1,1.18,7.11l-4.59.64a10.57,10.57,0,0,0-1.18-7.11Z"/>
        <path class="cls-41" d="M1579.87,990.64a10.33,10.33,0,0,1,6.07.21l-.14,3.31a10.38,10.38,0,0,0-6.07-.22Z"/>
      </g>
      <g>
        <g>
          <polygon class="cls-42" points="1248.89 923.42 1245.79 919.32 1242.78 921.24 1245.88 925.34 1248.89 923.42"/>
          <path class="cls-43" d="M1245.43,919.55a7.85,7.85,0,0,1,3.1,4.1l-2.65,1.69a7.85,7.85,0,0,0-3.1-4.1Z"/>
        </g>
        <g>
          <polygon class="cls-44" points="1174.81 927.33 1170.48 922.32 1166.81 924.99 1171.14 930 1174.81 927.33"/>
          <path class="cls-45" d="M1170.05,922.64a10.19,10.19,0,0,1,4.32,5l-3.23,2.35a10.18,10.18,0,0,0-4.33-5Z"/>
        </g>
        <g>
          <polygon class="cls-46" points="1203.4 983.91 1196.84 985.44 1197.96 989.49 1204.52 987.96 1203.4 983.91"/>
          <path class="cls-47" d="M1197,985.92a11.48,11.48,0,0,1,6.55-1.53l1,3.57a11.52,11.52,0,0,0-6.56,1.53Z"/>
        </g>
      </g>
      <g>
        <path class="cls-48" d="M1556.62,917.25a7.9,7.9,0,0,1,1.58,5.18l-3.35.87a8,8,0,0,0-1.58-5.19Z"/>
        <path class="cls-49" d="M1509.21,962.52a13.72,13.72,0,0,1,7.68,3.11l-2,4.19a13.77,13.77,0,0,0-7.69-3.11Z"/>
        <path class="cls-50" d="M1472.29,987.78a17.57,17.57,0,0,1,10-2.54l1.64,5.46a17.56,17.56,0,0,0-10,2.54Z"/>
      </g>
      <g>
        <path class="cls-51" d="M1208.61,928.79a10,10,0,0,1-.46,6.81l-4.4-.25a10,10,0,0,0,.46-6.82Z"/>
        <path class="cls-52" d="M1254.23,968.82a9,9,0,0,1,3.78,4.42l-2.86,2a8.91,8.91,0,0,0-3.78-4.41Z"/>
        <path class="cls-53" d="M1240.05,1026.77a10.75,10.75,0,0,1,4.77,5l-3.24,2.6a10.74,10.74,0,0,0-4.78-5Z"/>
      </g>
      <g>
        <path class="cls-54" d="M1410.72,1015.74c-5.17,7.2-15.64,5-23.38,3.55-8.74-1.62-16.61-2.31-22.23,3.73,1.49-2.31,2.41-4.32,4.3-7.27,4.7-7.29,13-8.1,21.36-6.82,8,1.21,20.16,5,25.73-2.77-1.59,2.23-3.73,6.72-5.78,9.58Z"/>
        <path class="cls-55" d="M1405.29,949.87a170.88,170.88,0,0,1,13.67,36c1.24,4.86,2.7,10.84.25,15.59-2.18,4.24-4.31,9.05-7.56,12.7,2.54-2.85,3.13-7.2,5.69-10.08a10.26,10.26,0,0,0,1.43-1.81l-5.33,9.37.54-1-.37.7c3.12-7.72-.58-17-2.91-24.53A167.26,167.26,0,0,0,1399.6,960c-.33-.65,2.46-4.48,2.79-5.07s3.17-4.49,2.9-5Z"/>
        <path class="cls-56" d="M1380.81,1061.75c-1.34,4.64-4.45,7.3-9.7,8-5.9.83-10.81,1.71-13.61,7.16,1.71-3.34,1.25-7.65,3-11,2.21-4.29,6.2-6.34,11.21-6.92,5.18-.6,9.41-1.65,11.56-6.48-.07.25-.15.5-.23.75.1-.36.21-.71.31-1.07.59-2-.38,1.7-.45,2-.67,2.52-1.34,5-2.07,7.54Z"/>
        <path class="cls-57" d="M1367.67,1018.91a10.19,10.19,0,0,0,0,8.5h0c3,7.11,12.26,13.4,15.32,19.65,2.06,4.2.9,8.3-1,12.28.09.16-.46,1.37-1.65,3.62-.27.58-.54,1.16-.82,1.74a17.54,17.54,0,0,0-3.24-10h0c-3.14-4.86-8.35-9.13-11.69-13.73-2.72-3.74-3.54-7.86-1.86-12l-.09.12c.06-.13.12-.26.19-.38a2,2,0,0,1,.13-.34c1.4-3,2.65-7,4.89-9.94Z"/>
      </g>
    </g>
    <text class="cls-58" transform="translate(271.53 865.52)"><tspan xml:space="preserve">D  </tspan><tspan class="cls-59" x="669.21" y="0">y</tspan></text>
    <text class="cls-60" transform="translate(624.85 905.51) rotate(-11.68)">a</text>
    <g id="string">
      <path d="M205.23,881.52a236.15,236.15,0,0,0,20.36-21q4.74-5.55,9.12-11.37,2.16-2.88,4.24-5.83a46.81,46.81,0,0,0,3.87-5.9,7.1,7.1,0,0,0-2.35-9.51c-3.14-2.1-7.16-1.37-10,.89-5.85,4.68-4.56,12.9-.34,18.17,5.47,6.81,14.25,7.88,22.39,6.25a79.88,79.88,0,0,0,14.26-4.69q6.63-2.7,13.16-5.68a329,329,0,0,0,50.92-29.05c7.23-5,14.61-10.13,20.51-16.73A57.89,57.89,0,0,0,363.08,777c.66-2,1.22-4,1.7-6,.19-.79-1-1.12-1.2-.34a59,59,0,0,1-9.09,20.5c-4.61,6.5-10.57,11.59-16.94,16.29a328.51,328.51,0,0,1-45.88,28.33q-12.15,6.18-24.8,11.35c-8.42,3.43-18,7.24-27.15,4.76-6.41-1.73-12.27-8.08-12-15a9.55,9.55,0,0,1,6.12-8.63c3.7-1.31,8.6.91,8.74,5.22.08,2.31-1.41,4.36-2.65,6.19s-2.56,3.7-3.89,5.53q-4,5.58-8.43,10.92A235.58,235.58,0,0,1,209.28,876c-1.62,1.56-3.27,3.1-4.93,4.61-.6.55.29,1.43.88.89Z"/>
      <path d="M275.19,803.64c48.59,28.3,99.44,52.22,154,66.55C488,885.64,547.5,898.92,607.73,907.48c59.06,8.39,119,12.19,178.56,8.17a626.37,626.37,0,0,0,87.83-12c27.88-5.92,55.83-13.44,81.79-25.4a223.61,223.61,0,0,0,35.25-20.55c8.47-6,16.74-12.4,23.63-20.2a84.39,84.39,0,0,0,15-24.79c1-2.61,2-5.26,2.81-7.93.44-1.39.72-1.94.19-3.29-1-2.64-3.92-5.05-6.29-6.44-1.86-1.09-4.45-2.14-6.13-.23-.53.6.35,1.49.88.88,2.53-2.87,8.7,3.27,9.92,5.42s0,3.93-.67,6.06c-1,2.87-2.06,5.7-3.29,8.47a82.09,82.09,0,0,1-16.53,24.4c-7.45,7.58-16.11,13.84-24.85,19.81A212.78,212.78,0,0,1,951,879.05c-25.73,11.25-53.25,18.43-80.69,24.08a625.41,625.41,0,0,1-85.44,11.36c-57.33,3.75-115,.3-171.83-7.52-57.22-7.87-113.76-20.12-169.7-34.41C417,865.85,391.2,858.08,366,847.85a660.17,660.17,0,0,1-72.41-35.14q-9-5-17.8-10.14a.62.62,0,0,0-.63,1.07Z"/>
      <path d="M989,830.9A53,53,0,0,0,1011.69,873c6,4.16,17.19,10.27,23,2.53,2-2.75,1.82-6.45-1.08-8.48-2.52-1.77-6.21-1.41-7.39,1.75-1.59,4.25,2.61,8.53,5.41,11.11a62.4,62.4,0,0,0,13.49,9.46c.71.37,1.34-.7.63-1.08a61.67,61.67,0,0,1-10.64-7c-2.9-2.39-6.33-5.13-7.58-8.81-.55-1.64-.55-3.64,1-4.75a3.8,3.8,0,0,1,4.22.24c3.41,2.2,2.09,6.47-.79,8.49-3.76,2.63-8.6,1.32-12.43-.44a47.27,47.27,0,0,1-9.09-5.51,52.12,52.12,0,0,1-13.93-16.4,50.4,50.4,0,0,1-6.19-23.2.63.63,0,0,0-1.25,0Z"/>
    </g>
    <g id="banner">
      <g>
        <path class="cls-61" d="M765.29,900.6l9.9,121.08c15.76-12.34,23.49-18.65,38.63-31.53,18.37,8,27.7,11.84,46.61,19.08q-8.37-60-16.75-120.09C817.53,893.62,791.58,897.41,765.29,900.6Z"/>
        <g>
          <path class="cls-62" d="M813.52,987.76a1.84,1.84,0,0,1-1.3-.36,1.72,1.72,0,0,1-.62-1.19,2,2,0,0,1,0-.69,3.72,3.72,0,0,1,.31-.67,1.81,1.81,0,0,1,2.45-.35,2.17,2.17,0,0,1,.45.55,2,2,0,0,1,.21.66,1.87,1.87,0,0,1-.38,1.33,1.93,1.93,0,0,1-.51.48A2.27,2.27,0,0,1,813.52,987.76Z"/>
          <path class="cls-62" d="M782.73,1011.21a1.81,1.81,0,0,1,.35-2.54h0a1.67,1.67,0,0,1,2.44.29h0a1.84,1.84,0,0,1-.34,2.55h0a1.81,1.81,0,0,1-.9.36h0A1.69,1.69,0,0,1,782.73,1011.21Zm5.93-4.76a1.86,1.86,0,0,1,.29-2.55h0a1.72,1.72,0,0,1,2.47.28h0a1.84,1.84,0,0,1-.33,2.55h0a1.81,1.81,0,0,1-.88.4h0A1.66,1.66,0,0,1,788.66,1006.45Zm5.84-4.8a1.92,1.92,0,0,1,.32-2.55h0a1.74,1.74,0,0,1,2.47.27h0a1.83,1.83,0,0,1-.32,2.55h0a1.81,1.81,0,0,1-.88.4h0A1.74,1.74,0,0,1,794.5,1001.65Zm5.85-4.79a1.9,1.9,0,0,1,.31-2.55h0a1.67,1.67,0,0,1,2.46.25h0a1.85,1.85,0,0,1-.3,2.55h0a1.77,1.77,0,0,1-.88.38h0A1.76,1.76,0,0,1,800.35,996.86Zm5.82-4.86a1.91,1.91,0,0,1,.29-2.55h0a1.69,1.69,0,0,1,2.45.24h0a1.84,1.84,0,0,1-.29,2.55h0a1.71,1.71,0,0,1-.87.41h0A1.74,1.74,0,0,1,806.17,992Z"/>
          <path class="cls-62" d="M778.33,1016.61a1.73,1.73,0,0,1-1.28-.4,1.2,1.2,0,0,1-.44-.53,1.51,1.51,0,0,1-.19-.67,1.38,1.38,0,0,1,.08-.7,1.46,1.46,0,0,1,.34-.65,1.73,1.73,0,0,1,1.87-.57,2.24,2.24,0,0,1,.63.29,1.72,1.72,0,0,1,.4.57,1.5,1.5,0,0,1,.2.67,1.87,1.87,0,0,1-.39,1.31,2.22,2.22,0,0,1-.56.46A1.84,1.84,0,0,1,778.33,1016.61Z"/>
          <path class="cls-62" d="M775.8,1007.6a1.85,1.85,0,0,1,1.6-2h0a1.72,1.72,0,0,1,1.91,1.6h0a1.83,1.83,0,0,1-1.6,2h0A1.75,1.75,0,0,1,775.8,1007.6Zm-.61-7.41a1.87,1.87,0,0,1,1.59-2h0a1.72,1.72,0,0,1,1.89,1.6h0a1.82,1.82,0,0,1-1.59,2h0A1.73,1.73,0,0,1,775.19,1000.19Zm-.61-7.37a1.83,1.83,0,0,1,1.58-2h0a1.71,1.71,0,0,1,1.89,1.61h0a1.84,1.84,0,0,1-1.59,2h0A1.75,1.75,0,0,1,774.58,992.82Zm-.62-7.41a1.85,1.85,0,0,1,1.58-2h0a1.7,1.7,0,0,1,1.87,1.61h0a1.83,1.83,0,0,1-1.57,2h0A1.75,1.75,0,0,1,774,985.41Zm-.61-7.41a1.83,1.83,0,0,1,1.56-2h0a1.69,1.69,0,0,1,1.87,1.6h0a1.8,1.8,0,0,1-1.56,2h0A1.71,1.71,0,0,1,773.35,978Zm-.62-7.4a1.85,1.85,0,0,1,1.56-2h0a1.7,1.7,0,0,1,1.86,1.61h0a1.79,1.79,0,0,1-1.56,2h0A1.71,1.71,0,0,1,772.73,970.6Zm-.61-7.38a1.83,1.83,0,0,1,1.55-2h0a1.68,1.68,0,0,1,1.85,1.61h0a1.8,1.8,0,0,1-1.55,2h0A1.72,1.72,0,0,1,772.12,963.22Zm-.61-7.4a1.83,1.83,0,0,1,1.54-2h0a1.68,1.68,0,0,1,1.84,1.61h0a1.79,1.79,0,0,1-1.54,2h0A1.71,1.71,0,0,1,771.51,955.82Zm-.61-7.41a1.81,1.81,0,0,1,1.53-2h0a1.69,1.69,0,0,1,1.83,1.61h0a1.79,1.79,0,0,1-1.53,2h0A1.69,1.69,0,0,1,770.9,948.41Zm-.62-7.41a1.83,1.83,0,0,1,1.52-2h0a1.69,1.69,0,0,1,1.83,1.61h0a1.78,1.78,0,0,1-1.52,2h0A1.69,1.69,0,0,1,770.28,941Zm-.61-7.37a1.81,1.81,0,0,1,1.51-2h0a1.66,1.66,0,0,1,1.82,1.61h0a1.8,1.8,0,0,1-1.51,2h0A1.71,1.71,0,0,1,769.67,933.63Zm-.61-7.41a1.79,1.79,0,0,1,1.5-2h0a1.66,1.66,0,0,1,1.81,1.61h0a1.8,1.8,0,0,1-1.51,2h0A1.7,1.7,0,0,1,769.06,926.22Zm-.62-7.41a1.83,1.83,0,0,1,1.5-2h0a1.69,1.69,0,0,1,1.8,1.61h0a1.79,1.79,0,0,1-1.5,2h0A1.69,1.69,0,0,1,768.44,918.81Zm-.61-7.41a1.82,1.82,0,0,1,1.49-2h0a1.7,1.7,0,0,1,1.79,1.62h0a1.77,1.77,0,0,1-1.49,2h0A1.68,1.68,0,0,1,767.83,911.4Z"/>
          <path class="cls-62" d="M769,905.65a1.54,1.54,0,0,1-1.19-.41,1.62,1.62,0,0,1-.41-.54,1.64,1.64,0,0,1-.18-.67,1.92,1.92,0,0,1,.38-1.35,1.6,1.6,0,0,1,1.73-.59,3,3,0,0,1,.58.34,1.92,1.92,0,0,1,.57,1.24,1.71,1.71,0,0,1-.07.7,2.4,2.4,0,0,1-.28.61,2.18,2.18,0,0,1-.52.45A1.78,1.78,0,0,1,769,905.65Z"/>
          <path class="cls-62" d="M832.78,894.76a1.79,1.79,0,0,1,1.38-2.06h0a1.63,1.63,0,0,1,1.86,1.5h0a1.83,1.83,0,0,1-1.38,2.07h0A1.65,1.65,0,0,1,832.78,894.76Zm-6.53,1.11a1.81,1.81,0,0,1,1.4-2.06h0a1.67,1.67,0,0,1,1.85,1.52h0a1.85,1.85,0,0,1-1.4,2.06h0A1.66,1.66,0,0,1,826.25,895.87ZM819.69,897a1.79,1.79,0,0,1,1.41-2.05h0a1.63,1.63,0,0,1,1.84,1.52h0a1.8,1.8,0,0,1-1.4,2.05h0A1.66,1.66,0,0,1,819.69,897Zm-6.53,1a1.79,1.79,0,0,1,1.38-2h0a1.67,1.67,0,0,1,1.87,1.53h0a1.83,1.83,0,0,1-1.44,2h0A1.67,1.67,0,0,1,813.16,898Zm-6.56,1a1.78,1.78,0,0,1,1.42-2h0a1.65,1.65,0,0,1,1.83,1.55h0a1.82,1.82,0,0,1-1.43,2h0A1.66,1.66,0,0,1,806.6,899Zm-6.54.94a1.78,1.78,0,0,1,1.43-2h0a1.64,1.64,0,0,1,1.79,1.56h0a1.8,1.8,0,0,1-1.4,2h0A1.66,1.66,0,0,1,800.06,899.91Zm-6.58.91a1.79,1.79,0,0,1,1.44-2h0a1.66,1.66,0,0,1,1.82,1.57h0a1.8,1.8,0,0,1-1.45,2h0A1.66,1.66,0,0,1,793.48,900.82Zm-6.54.86a1.77,1.77,0,0,1,1.45-2h0a1.66,1.66,0,0,1,1.8,1.58h0a1.83,1.83,0,0,1-1.45,2h0A1.67,1.67,0,0,1,786.94,901.68Zm-6.58.83a1.76,1.76,0,0,1,1.46-2h0a1.65,1.65,0,0,1,1.79,1.59h0a1.78,1.78,0,0,1-1.46,2h0A1.66,1.66,0,0,1,780.36,902.51Zm-6.56.78a1.78,1.78,0,0,1,1.47-2h0a1.68,1.68,0,0,1,1.79,1.6h0a1.81,1.81,0,0,1-1.47,2h0A1.67,1.67,0,0,1,773.8,903.29Z"/>
          <path class="cls-62" d="M841.2,895.1a2.16,2.16,0,0,1-.67,0,2,2,0,0,1-.58-.29,1.84,1.84,0,0,1-.62-1.17,3,3,0,0,1,0-.73,3.1,3.1,0,0,1,.28-.64,3.52,3.52,0,0,1,.46-.49,1.61,1.61,0,0,1,1.84.07,1.91,1.91,0,0,1,.43.51,2.55,2.55,0,0,1,.23.69,2,2,0,0,1-.31,1.34A1.72,1.72,0,0,1,841.2,895.1Z"/>
          <path class="cls-62" d="M853.32,996.58a1.88,1.88,0,0,1,1.5-2.1h0a1.71,1.71,0,0,1,2,1.47h0a1.89,1.89,0,0,1-1.5,2.1h0A1.68,1.68,0,0,1,853.32,996.58Zm-1-7.35a1.87,1.87,0,0,1,1.49-2.1h0a1.7,1.7,0,0,1,2,1.47h0a1.91,1.91,0,0,1-1.49,2.1h0A1.71,1.71,0,0,1,852.32,989.23Zm-1-7.36a1.85,1.85,0,0,1,1.49-2.09h0a1.68,1.68,0,0,1,2,1.47h0a1.9,1.9,0,0,1-1.48,2.1h0A1.7,1.7,0,0,1,851.32,981.87Zm-1-7.35a1.84,1.84,0,0,1,1.47-2.09h0a1.69,1.69,0,0,1,2,1.47h0a1.91,1.91,0,0,1-1.47,2.1h0A1.69,1.69,0,0,1,850.33,974.52Zm-1-7.35a1.83,1.83,0,0,1,1.46-2.09h0a1.68,1.68,0,0,1,2,1.47h0a1.86,1.86,0,0,1-1.47,2.06h0A1.66,1.66,0,0,1,849.33,967.17Zm-1-7.39a1.87,1.87,0,0,1,1.46-2.09h0a1.7,1.7,0,0,1,1.94,1.47h0a1.89,1.89,0,0,1-1.45,2.13h0A1.69,1.69,0,0,1,848.32,959.78Zm-1-7.35a1.86,1.86,0,0,1,1.45-2.09h0a1.69,1.69,0,0,1,1.93,1.48h0a1.86,1.86,0,0,1-1.44,2.09h0A1.66,1.66,0,0,1,847.32,952.43Zm-1-7.35a1.86,1.86,0,0,1,1.44-2.09h0a1.69,1.69,0,0,1,1.93,1.48h0a1.86,1.86,0,0,1-1.44,2.09h0A1.66,1.66,0,0,1,846.32,945.08Zm-1-7.36a1.86,1.86,0,0,1,1.43-2.08h0a1.68,1.68,0,0,1,1.92,1.48h0a1.83,1.83,0,0,1-1.43,2.08h0A1.64,1.64,0,0,1,845.32,937.72Zm-1-7.35a1.84,1.84,0,0,1,1.42-2.09h0a1.68,1.68,0,0,1,1.9,1.49h0a1.84,1.84,0,0,1-1.42,2.08h0A1.63,1.63,0,0,1,844.33,930.37Zm-1-7.35a1.82,1.82,0,0,1,1.41-2.09h0a1.67,1.67,0,0,1,1.9,1.49h0a1.84,1.84,0,0,1-1.41,2.08h0A1.63,1.63,0,0,1,843.33,923Zm-1-7.36a1.82,1.82,0,0,1,1.4-2.08h0a1.66,1.66,0,0,1,1.89,1.49h0a1.83,1.83,0,0,1-1.4,2.08h0A1.63,1.63,0,0,1,842.33,915.66Zm-1-7.35a1.81,1.81,0,0,1,1.39-2.08h0a1.65,1.65,0,0,1,1.88,1.49h0a1.82,1.82,0,0,1-1.39,2.08h0A1.63,1.63,0,0,1,841.33,908.31Zm-1-7.35a1.81,1.81,0,0,1,1.38-2.08h0a1.66,1.66,0,0,1,1.88,1.49h0a1.86,1.86,0,0,1-1.39,2.08h0A1.65,1.65,0,0,1,840.33,901Z"/>
          <path class="cls-62" d="M856.32,1005.4a1.47,1.47,0,0,1-.72,0,1.85,1.85,0,0,1-.62-.29,1.73,1.73,0,0,1-.66-1.16,2.34,2.34,0,0,1,0-.7,3.72,3.72,0,0,1,.31-.67,1.86,1.86,0,0,1,.51-.46,1.8,1.8,0,0,1,2,0,2.16,2.16,0,0,1,.47.53,2.07,2.07,0,0,1,.23.66,1.9,1.9,0,0,1-.35,1.34A1.88,1.88,0,0,1,856.32,1005.4Z"/>
          <path class="cls-62" d="M849.2,1002.87a1.73,1.73,0,0,1-1-2.32h0a1.77,1.77,0,0,1,2.32-1h0a1.73,1.73,0,0,1,.93,2.32h0a1.8,1.8,0,0,1-1.39,1.12h0A1.61,1.61,0,0,1,849.2,1002.87Zm-6.15-2.45a1.76,1.76,0,0,1-.94-2.32h0a1.79,1.79,0,0,1,2.29-1.05h0a1.81,1.81,0,0,1,1,2.36h0a1.88,1.88,0,0,1-1.39,1.11h0A1.5,1.5,0,0,1,843.05,1000.42ZM836.89,998a1.83,1.83,0,0,1-.9-2.37h0a1.75,1.75,0,0,1,2.29-1h0a1.76,1.76,0,0,1,.94,2.33h0a1.84,1.84,0,0,1-1.39,1.14h0A2,2,0,0,1,836.89,998Zm-6.1-2.55a1.76,1.76,0,0,1-.92-2.33h0a1.79,1.79,0,0,1,2.32-1h0a1.81,1.81,0,0,1,.93,2.37h0a1.93,1.93,0,0,1-1.43,1.1h0A1.59,1.59,0,0,1,830.79,995.4Zm-6.08-2.54a1.82,1.82,0,0,1-.91-2.38h0a1.78,1.78,0,0,1,2.32-1h0a1.79,1.79,0,0,1,.88,2.34h0a1.81,1.81,0,0,1-1.39,1.13h0A2,2,0,0,1,824.71,992.86Zm-6.09-2.61a1.8,1.8,0,0,1-.86-2.35h0a1.75,1.75,0,0,1,2.28-1h0a1.82,1.82,0,0,1,.91,2.38h0a1.86,1.86,0,0,1-1.4,1.08h0A1.66,1.66,0,0,1,818.62,990.25Z"/>
        </g>
      </g>
      <g>
        <path class="cls-63" d="M455.42,859.52Q440,918.05,424.68,976.58c18.73-5,28-7.73,46.29-13.52,14.4,15,21.79,22.44,36.92,37q12-59.47,24-118.95C506.19,874.5,480.86,867.36,455.42,859.52Z"/>
        <g>
          <path class="cls-64" d="M443,907q33.38,37.32,69.3,71.46l1.65-8.15Q478.31,936.23,445.13,899C444.29,902.17,443.87,903.77,443,907Zm-7.76,29.59c10.73,11.79,16.21,17.62,27.38,29.13,3-.93,4.51-1.39,7.5-2.34-13.42-13.72-20-20.69-32.78-34.82Zm4.41-16.8q33.74,37.43,70,71.66l.83-4.08q-36.13-34.19-69.8-71.6Zm-12.18,46.38c2.87,3.1,4.31,4.64,7.21,7.72,3.05-.84,4.58-1.27,7.62-2.14-5.14-5.41-7.68-8.13-12.73-13.6Zm4.41-16.8c7.38,8,11.13,12,18.71,20l3.79-1.11c-8.71-9.06-13-13.63-21.45-22.86Zm17.19-65.47q32.71,37.1,68,71.08l1.65-8.15q-35-33.9-67.52-70.95Zm74.14-4.94c-5.11-1.28-7.66-1.94-12.75-3.29,7.39,7.75,11.14,11.59,18.73,19.19l1.65-8.15C527.79,883.6,526.26,882.05,523.23,878.94Zm-33-8.85c14.16,15.36,21.44,22.91,36.38,37.74l.82-4.07c-12.62-12.56-18.79-18.94-30.85-31.88Zm-26.49-7.93q28.71,32.6,59.42,62.75l1.65-8.16C508.2,900.49,492,883.5,476.36,866,471.3,864.52,468.77,863.74,463.72,862.16Zm-10.22,4.92q32.24,37,67,70.82l.83-4.08Q486.72,900,454.55,863.07Z"/>
          <path class="cls-64" d="M515.61,962.17q-35.43-34.32-68.35-71.84c-.31,1.16-.46,1.75-.77,2.91q33,37.51,68.52,71.88Z"/>
        </g>
      </g>
      <g>
        <path class="cls-65" d="M865.12,886.15l20.22,119.38c14.69-14.08,21.86-21.25,35.89-35.8,19,5.87,28.68,8.6,48.2,13.63l-27-117.59C916.71,873.23,891.11,880,865.12,886.15Z"/>
        <path class="cls-66" d="M920.23,914.06c-8-2.19-12-3.32-19.93-5.65-6.44,5.8-9.69,8.68-16.26,14.39-5.39-1.67-8.08-2.53-13.43-4.27.06.4.1.6.17,1,5.35,1.74,8,2.59,13.43,4.26,6.58-5.7,9.83-8.58,16.28-14.39,7.93,2.33,11.92,3.46,19.94,5.65,6.44-5.94,9.63-8.93,16-15,5.89,1.52,8.84,2.25,14.78,3.69-.09-.4-.14-.6-.23-1-5.93-1.44-8.88-2.18-14.76-3.69C929.86,905.13,926.67,908.13,920.23,914.06Zm-25,68.18c-5.86-1.7-8.78-2.57-14.59-4.34.07.4.1.6.17,1,5.81,1.77,8.73,2.64,14.59,4.33,6.88-5.79,10.28-8.71,17-14.6,3.11.85,4.67,1.27,7.79,2.1L921,970c-3.49-.93-5.23-1.4-8.71-2.35C905.52,973.53,902.12,976.45,895.25,982.24Zm23.5-78.19c-8-2.19-11.92-3.33-19.8-5.68-6.39,5.8-9.62,8.68-16.13,14.38-5.61-1.76-8.4-2.66-14-4.49.06.41.1.61.17,1,5.55,1.83,8.34,2.73,14,4.48,6.51-5.7,9.74-8.58,16.14-14.38C907,901.71,911,902.85,919,905c6.39-5.92,9.55-8.91,15.82-14.94,5.61,1.46,8.43,2.17,14.08,3.56-.09-.4-.14-.6-.23-1-5.64-1.38-8.46-2.09-14.06-3.55C928.3,895.14,925.14,898.13,918.75,904.05Zm14.22,69L928.69,972l5.11,1.52c6.49-5.8,9.71-8.73,16.09-14.63,5.86,1.39,8.8,2.06,14.7,3.37l-.23-1c-5.89-1.3-8.83-2-14.69-3.36C943.05,964,939.71,967.06,933,973.09Zm-16.25-78.9c-7.92-2.21-11.85-3.36-19.68-5.72-6.34,5.79-9.54,8.66-16,14.34-5.57-1.76-8.34-2.66-13.86-4.49l.17,1c5.52,1.84,8.29,2.74,13.86,4.5,6.47-5.69,9.67-8.56,16-14.34,7.84,2.35,11.77,3.5,19.69,5.71,6.34-5.92,9.48-8.9,15.7-14.91,5.57,1.47,8.37,2.19,14,3.58-.09-.39-.14-.59-.23-1-5.61-1.39-8.4-2.11-14-3.58C926.19,885.3,923.05,888.28,916.72,894.19Zm35.84,84.68,1,.27.65-.6c5.93,1.37,8.91,2,14.88,3.31-.09-.39-.14-.59-.23-1-6-1.28-8.93-1.94-14.86-3.31Zm-22.32-109.4c-6.16,6-9.27,9-15.55,14.86-7.59-2.15-11.36-3.25-18.86-5.54l-1.28.33c-6.06,5.55-9.12,8.31-15.29,13.77-5.53-1.77-8.28-2.68-13.77-4.53.07.41.11.61.18,1,5.48,1.85,8.24,2.75,13.77,4.52,6.41-5.67,9.59-8.53,15.88-14.31,7.78,2.38,11.69,3.52,19.56,5.75,6.29-5.9,9.4-8.88,15.57-14.87,5.54,1.48,8.32,2.2,13.9,3.61l-.23-1C938.55,871.67,935.77,871,930.24,869.47ZM882.35,987.85c.07.4.1.6.17,1,5.84,1.77,8.78,2.63,14.67,4.31,2.3-1.91,3.44-2.87,5.72-4.8,3.06-3.05,4.59-4.58,7.62-7.66-5.36,4.62-8.06,6.91-13.5,11.47C891.13,990.48,888.2,989.61,882.35,987.85Zm60.31-11.75,1,.28c3.38-3.06,5.06-4.59,8.41-7.67,5.89,1.38,8.84,2,14.78,3.34-.09-.4-.14-.59-.23-1-5.92-1.29-8.88-2-14.76-3.33C948.19,971.09,946.36,972.76,942.66,976.1ZM884.2,998.81c2.48.74,3.73,1.1,6.22,1.83l.75-.74c-2.86-.83-4.29-1.25-7.14-2.11C884.1,998.2,884.13,998.4,884.2,998.81Zm40.55-75.56c-8.08-2.15-12.09-3.27-20.07-5.58-6.49,5.84-9.76,8.73-16.37,14.47-6.53-2-9.79-3-16.26-5.1l.17,1c6.47,2.08,9.73,3.1,16.26,5.09,6.62-5.74,9.89-8.63,16.38-14.47,8,2.3,12,3.42,20.08,5.57,6.49-6,9.7-9,16.06-15,4.82,1.21,7.24,1.8,12.09,2.95l-.22-1c-4.85-1.16-7.26-1.75-12.08-3C934.44,914.28,931.23,917.28,924.75,923.25Zm5.62,40.14c-8.27-2.12-12.38-3.22-20.56-5.5-6.7,5.88-10.08,8.79-16.91,14.56-5.57-1.64-8.34-2.47-13.87-4.18.07.4.1.61.17,1,5.53,1.7,8.3,2.54,13.87,4.17,6.83-5.77,10.21-8.69,16.92-14.56,8.18,2.27,12.3,3.37,20.57,5.49,6.7-6,10-9,16.6-15.15,6.08,1.46,9.13,2.17,15.26,3.55-.1-.4-.14-.6-.23-1-6.12-1.37-9.16-2.08-15.23-3.54C940.38,954.35,937.06,957.38,930.37,963.39ZM925.2,944c-8.16-2.15-12.23-3.27-20.3-5.58-6.61,5.84-9.94,8.74-16.66,14.47-5-1.5-7.5-2.27-12.47-3.84.07.4.1.61.17,1,5,1.56,7.46,2.33,12.46,3.83,6.73-5.74,10.07-8.63,16.68-14.48,8.08,2.31,12.14,3.43,20.31,5.58,6.61-6,9.88-9,16.36-15.06,6.5,1.61,9.76,2.4,16.31,3.91-.09-.4-.14-.59-.23-1-6.54-1.51-9.8-2.29-16.29-3.91C935.07,935,931.8,938,925.2,944Zm-.63-10.25c-8.12-2.15-12.16-3.27-20.19-5.58-6.54,5.83-9.85,8.73-16.51,14.46-5.59-1.69-8.38-2.56-13.92-4.32.07.4.1.6.17,1,5.54,1.77,8.33,2.63,13.91,4.33,6.68-5.74,10-8.63,16.54-14.47,8,2.31,12.07,3.43,20.19,5.58,6.55-6,9.79-9,16.21-15,5.85,1.46,8.78,2.17,14.66,3.55l-.23-1c-5.88-1.38-8.8-2.09-14.64-3.55C934.35,924.74,931.11,927.75,924.57,933.71Zm3.21,20c-8.22-2.14-12.3-3.24-20.43-5.54-6.66,5.86-10,8.77-16.79,14.52-5.28-1.57-7.91-2.37-13.16-4,.07.41.1.61.17,1,5.25,1.63,7.88,2.43,13.16,4,6.78-5.75,10.14-8.65,16.8-14.51,8.13,2.29,12.22,3.39,20.44,5.53,6.65-6,9.95-9,16.48-15.1,6.29,1.53,9.45,2.28,15.79,3.72-.09-.4-.14-.59-.23-1-6.33-1.45-9.49-2.19-15.77-3.73C937.72,944.66,934.42,947.68,927.78,953.67Z"/>
      </g>
      <g>
        <path class="cls-67" d="M552.13,886.7q-5.5,61-11,122c17.73-8.62,26.46-13.11,43.63-22.41,16.77,12.1,25.33,18,42.76,29.44q2-61.28,4-122.54C604.92,891.66,578.65,889.52,552.13,886.7Z"/>
        <path class="cls-68" d="M547.33,939.81l-.15,1.7q42-8.22,83.4-19.84l.06-1.71Q589.3,931.59,547.33,939.81Zm-1.22,13.46q42.33-8.19,84.08-19.8c0-.68,0-1,.06-1.7q-41.67,11.61-84,19.8C546.21,952.25,546.18,952.59,546.11,953.27Zm.28-3q42.24-8.19,83.9-19.8l.25-7.61q-41.41,11.61-83.47,19.83C546.8,945.69,546.66,947.21,546.39,950.24Zm-1.27,14q42.64-8.15,84.71-19.74l.06-1.71q-42,11.6-84.61,19.75C545.22,963.2,545.19,963.54,545.12,964.22ZM544.06,976q43-8.1,85.38-19.68c0-.68,0-1,.06-1.71q-42.33,11.58-85.28,19.69C544.15,975,544.12,975.29,544.06,976Zm.27-3q42.9-8.12,85.21-19.7l.25-7.61q-42.06,11.6-84.77,19.73C544.75,968.4,544.61,969.92,544.33,973Z"/>
      </g>
      <g>
        <path class="cls-69" d="M655.29,897.18l-1.1,121.25c18.83-9.57,28.09-14.54,46.31-24.8,19.66,10.89,29.63,16.16,49.87,26.3q-2.91-60.67-5.83-121.35Q700,899.56,655.29,897.18Z"/>
        <g>
          <path class="cls-70" d="M654.92,946.33c31.16,18.22,62.53,35.33,94.47,51.56l-.4-8.31c-31.78-16.24-63-33.35-94-51.56C655,941.34,655,943,654.92,946.33ZM654.64,977c14.85,8.75,22.37,13,37.57,21.33,3-1.66,4.49-2.49,7.48-4.17-18.24-9.88-27.24-15-45-25.47C654.69,972,654.67,973.65,654.64,977Zm.16-17.4c31.41,18.23,63,35.35,95.22,51.58l-.2-4.16c-32.11-16.24-63.65-33.35-95-51.58C654.82,957.08,654.81,957.91,654.8,959.57Zm-.44,48c3.95,2.29,5.93,3.42,9.9,5.68,3.06-1.59,4.59-2.39,7.63-4-7-3.95-10.51-5.94-17.45-10C654.41,1002.63,654.39,1004.29,654.36,1007.61Zm.16-17.39c10.19,5.95,15.32,8.88,25.67,14.63l3.79-2c-11.88-6.57-17.76-9.92-29.42-16.75C654.54,987.72,654.54,988.55,654.52,990.22Zm.61-67.82c30.71,18.2,61.62,35.3,93.11,51.54l-.4-8.31c-31.33-16.24-62.09-33.34-92.63-51.54C655.18,917.41,655.16,919.07,655.13,922.4Zm79.34-23.64c-5.91.07-8.87.1-14.79.1,10.16,5.6,15.28,8.35,25.61,13.74l-.4-8.31C740.71,902.09,738.62,901,734.47,898.76Zm-38.39-.11c19.62,11.28,29.59,16.73,49.84,27.21l-.2-4.16c-17.12-8.89-25.57-13.48-42.23-22.93C700.53,898.73,699,898.71,696.08,898.65Zm-31-1q40.22,24.39,81.71,45.61l-.4-8.32c-22.41-11.44-44.68-23.73-66.48-36.72C674,898,671,897.93,665.05,897.66ZM655.29,905c30.37,18.19,61,35.29,92.11,51.53l-.2-4.16c-31.08-16.24-61.58-33.34-91.87-51.53C655.31,902.51,655.31,903.34,655.29,905Z"/>
          <path class="cls-70" d="M748.59,981.29c-31.68-16.44-62.78-33.75-93.67-52.18,0,1.21,0,1.81,0,3,31,18.42,62.11,35.74,93.84,52.17C748.68,983.1,748.65,982.5,748.59,981.29Z"/>
        </g>
      </g>
    </g>
    <text class="cls-71" transform="translate(248.89 1427.89)">D<tspan class="cls-72" x="318.31" y="0">e</tspan><tspan class="cls-73" x="640.05" y="0">c</tspan><tspan class="cls-74" x="927.06" y="0" xml:space="preserve">  </tspan><tspan class="cls-68" x="1194.33" y="0">r</tspan></text>
    <g id="balloon">
      <path class="cls-75" d="M1170,1674.8c-14-1.31-24.22-5.46-30.54-12.32-6.71-7.28-8.9-17.44-6.51-30.21.59-3.11,2.37-8.09,4.43-13.85a232.16,232.16,0,0,0,7.29-22.86l.3-1.23-1.28-.69c-12.73-6.81-16.74-18.44-11.61-33.62a1.71,1.71,0,0,1,1.66-1,2.15,2.15,0,0,1,.45,0c15.72,3.32,20,12.74,14.8,32.52l-.39,1.49,1.69.6c6.44,2.29,14.53,3.45,24,3.45a151.54,151.54,0,0,0,41.38-6.16c25.14-7.6,42.51-22.11,50.22-42,5.87-15.11,6.88-30.77,7.85-45.92.52-8.13,1.06-16.53,2.35-24.75,3.09-19.73,10.48-38.88,24-62.06l1.59-2.73c11.65-20,24.85-42.62,21.22-66.19-2-13.27-9.06-24.64-15.85-35.64-5.31-8.62-10.82-17.53-13.73-27.18-4.78-15.76.44-29.66,16.92-45.06a1.26,1.26,0,0,1,.92-.43,2,2,0,0,1,1.57,1,1.17,1.17,0,0,1-.3,1.54c-18.21,17-21.9,33.44-11.61,51.65,2.28,4,4.8,8,7.24,11.91,3.47,5.53,7.06,11.24,10,17,11.17,22.34,11,45.58-.58,69.1-3.81,7.76-8.24,15.5-12.52,23-9.25,16.18-18.81,32.9-23,51.07-2.59,11.34-3.25,23.08-3.88,34.44-.78,14-1.58,28.39-6,41.94-11.46,34.91-43.65,55.57-90.65,58.17q-3.2.18-6.3.18c-9.5,0-17.88-1.22-24.89-3.62l-2.37-.81-.65,2c-1.17,3.77-2.51,7.62-3.86,11.49-6.54,18.82-13.3,38.29-3.24,50.77,5.45,6.75,15.06,10.69,29.39,12a1.78,1.78,0,0,1,1.76,1.88c-.07,1-.74,1-1,1Zm-35.74-110.43c-2.79,11.18,0,19.72,8.19,25.38l3.12,2.15.52-3.33c5.39-22.83-11.21-26.68-11.21-26.68Z"/>
      <g>
        <g>
          <path class="cls-76" d="M1316.73,1362.24s-45.08,28.38-39.71,38.33,26.84-8.78,29.82,0,7.16,10.53,12.52,9.94,3.58-14.62,13.72-10.53,31.6,8.19,25.64-4.68S1333.77,1363.1,1316.73,1362.24Z"/>
          <path class="cls-77" d="M1316.73,973.88c-59.36,0-170.42,60.6-171.07,228.2-.67,169.91,171.07,183.83,171.07,183.83s171.73-13.92,171.07-183.83C1487.15,1034.48,1376.09,973.88,1316.73,973.88Z"/>
        </g>
        <path class="cls-78" d="M1256.82,1016.38c-33,18.21-59.31,54.74-68.84,90.15-2.56,9.52,12.44,13.56,15,4,8.53-31.71,32.12-64.69,61.69-81,8.74-4.82.9-18-7.85-13.17Z"/>
        <path class="cls-78" d="M1180.28,1141.77a23.67,23.67,0,0,0-2.41,9.58c-.13,4.16,3.63,7.63,7.77,7.63a7.8,7.8,0,0,0,7.78-7.63c.07-2.19-.4,1.5.06-.84,0-.09.83-2.35.23-1,1.76-3.79,1.14-8.18-2.79-10.44-3.38-1.94-8.88-1-10.64,2.74Z"/>
      </g>
      <path class="cls-79" d="M1316.73,973.88c-11.73,0-25.48,2.41-40,7.5,78.66,15.68,138.24,89.56,138.24,178.39,0,100.24-75.85,181.51-169.41,181.51a159.05,159.05,0,0,1-46.82-7.08c50.23,46.19,118,51.71,118,51.71s171.73-13.92,171.07-183.83C1487.15,1034.48,1376.09,973.88,1316.73,973.88Z"/>
    </g>
    <g id="cap">
      <g>
        <polygon class="cls-80" points="547.98 358.82 524.52 335.82 534.91 329.45 547.98 358.82"/>
        <polygon class="cls-73" points="547.39 358.76 542.83 326.26 554.62 325.19 547.39 358.76"/>
        <polygon class="cls-73" points="548.44 357.83 518.23 343.91 515.12 355.31 548.44 357.83"/>
        <polygon class="cls-80" points="546.29 357.69 562.75 330.18 571.02 337.03 546.29 357.69"/>
        <polygon class="cls-80" points="546.35 357.22 518.79 361.54 521.22 372.37 546.35 357.22"/>
      </g>
      <path class="cls-77" d="M731.93,478.64,548.17,355.89l42.12,214.47s17.85,22.11,89.84-24C741.49,507.13,731.93,478.64,731.93,478.64Z"/>
      <g>
        <path class="cls-73" d="M571.07,387.55c1.27-3,.56-6.05,1.43-9.06a8.79,8.79,0,0,1,3-4.36l-6.39-4.26a8.34,8.34,0,0,0-1,2.14c-.87,3-.17,6.08-1.44,9.06-2.28,5.36-7.91,3.9-12.84,3.7l1.3,6.62C560.53,390.49,568.29,394.09,571.07,387.55Z"/>
        <path class="cls-73" d="M563.74,366.29l-5.81-3.89a16.26,16.26,0,0,1-7.35,5.78l1.44,7.33A16,16,0,0,0,563.74,366.29Z"/>
        <path class="cls-73" d="M710.18,464.11a17.94,17.94,0,0,0-2.32,14.09c.78,3.5,1.92,7.14.68,11a15.92,15.92,0,0,1-6.6,8.11,16.2,16.2,0,0,1-10.21,2.54c-3.18-.21-7-1.14-10.23.57s-3.8,5-3.79,7.84c0,3.35.33,6.52-1.85,9.81a14.87,14.87,0,0,1-9.23,6.26c-4,.78-7.72-.52-11.64-.51a13.92,13.92,0,0,0-10.22,4.55c-3,3.26-2.71,6.32-3.46,10-.84,4.18-4.64,6.06-8.76,5.67-3.85-.36-6.72-2.41-10.19-3.5-2.93-.92-6.61-1.28-9.46,1.23-2.34,2.07-3.06,5.09-3.9,7.69-.91,2.77-2.1,6.21-5.57,7.27-3.07.95-5.51-.86-7.48-2.34-2.19-1.66-4.56-3.93-7.82-3.91a6.79,6.79,0,0,0-1.71.22l1.54,7.85a8.05,8.05,0,0,1,3.2-1.45c3-.59,5.32.89,7.32,2.35,3.44,2.52,9.3,7.1,13.24.55,2.77-4.62,2.44-12.74,9.9-13.64,7.1-.86,13.55,7.64,21,3.14,3.88-2.34,2.92-6.51,3.78-9.77a13.4,13.4,0,0,1,7.16-8.14c7.67-3.67,14.9,2.21,22.51-2.87a13.15,13.15,0,0,0,6-9.19c.31-3-.59-6,.56-9,2.9-7.55,13-3.2,18.53-4.5a17.5,17.5,0,0,0,10.05-6.95c2.54-3.71,2.49-7.55,1.73-11.24-.83-4-2.14-7.93-.82-12.34a18.29,18.29,0,0,1,4.26-7.22Z"/>
        <path class="cls-73" d="M570.11,419.35c3.39-4.4.33-9.6,3.74-14,4.47-5.79,12.66-2.27,18.26-2.63,5.33-.35,12.12-3.8,12-9.45L599,389.87c-1.79,3.66-6.7,6-10.86,6.32-5.76.48-14.11-3.19-18.72,2.66-3.36,4.28-.46,9.32-3.46,13.66a9,9,0,0,1-6,3.85l1.32,6.68A9.73,9.73,0,0,0,570.11,419.35Z"/>
        <path class="cls-73" d="M588.09,530.55c2.53,1.28,5,2.81,8.3,2.56a6.77,6.77,0,0,0,6.23-5c.65-2.23.53-4.57,1.86-6.7,1.71-2.75,5-3.8,8-3.95,6.14-.3,10.8,3.32,16.9,3.1,12.59-.48,9.43-15.14,12.64-22.08,6.55-14.13,26.2-3.75,36.77-11.11,6.89-4.79,6-12.79,5.84-18.93-.14-5.52,1.35-13.43,8-16l-7.19-4.8c-3.63,3-5.12,8-5.23,12.1-.15,5.8,1.41,12.24-2.58,18-9.2,13.16-28.34-.21-38.3,11.62-5.74,6.81-.47,19.75-10.51,24-5.88,2.49-11.21-1-16.34-1.95-5.79-1.08-12.23.42-13.61,6.91-.56,2.64-.68,5.76-3.68,7.48-3.3,1.9-7,.65-9.65-.66a34.56,34.56,0,0,0-4.62-2.2l1.18,6A12.15,12.15,0,0,1,588.09,530.55Z"/>
        <path class="cls-73" d="M571.62,440.26c3.4-1.28,6.49-.78,9.75-.53,3,.23,6.49.14,8.59-2.77s1.49-6.47,3.18-9.55a16.19,16.19,0,0,1,7.71-6.83c3.78-1.61,7.12-.77,10.88-1.32s5.72-3.15,6.79-6.41c.81-2.46,1.69-5.68,4.12-7.22l-6.46-4.31a23.15,23.15,0,0,0-2,5.05c-1.08,3.26-2.92,5.83-6.79,6.41-3.6.53-6.85-.28-10.48,1.15a16.13,16.13,0,0,0-8.11,7c-1.61,3-1.11,6.33-3,9.22-2,3.18-5.67,3.33-8.83,3.1s-6.34-.74-9.74.53a15.27,15.27,0,0,0-3.42,1.8l1.73,8.83A15.67,15.67,0,0,1,571.62,440.26Z"/>
        <path class="cls-73" d="M580.44,503.42c6.16.69,7.46-6,10.49-9.7,3.45-4.22,8.44-6.65,13.37-5.16,3.77,1.14,7.26,4.31,11.79,3.5,6.8-1.21,7.9-8.93,9.11-13.66,1.1-4.34,3.38-8.59,8.5-10,7.65-2.14,16.85,2.77,23.91-2.88,5.33-4.26,4.48-10.88,4.68-16,.17-4.45,2.14-10.69,7.33-12.46l-7.19-4.8a13.31,13.31,0,0,0-4.26,7.8c-.81,5,.52,9.94-1.8,14.93-4.2,9-14.72,6.31-22,6.36-3.87,0-8,.91-10.68,4.24-3.61,4.45-2.85,10-5.39,14.75-2.64,4.94-7.31,6.27-11.89,4.53-3.71-1.42-7.2-4.1-11.88-3a14.9,14.9,0,0,0-7.35,4.73c-2.18,2.43-3,5.31-5,7.78a6.72,6.72,0,0,1-6.32,2.57l1,5.32A8.4,8.4,0,0,0,580.44,503.42Z"/>
        <path class="cls-73" d="M580.23,466.77c1.54-3.74,3.93-8.24,8.87-8.19,3.55,0,6.33,2.07,9.71,2.55,4.25.6,8.25-1.87,10.53-5.58,2.53-4.1,1.1-8.43,3.41-12.49a11.8,11.8,0,0,1,11.18-5.7c3.43.32,6.71,2,10.37,1.39,5.53-.87,6.55-6.36,6.61-10.29,0-2.56.46-6.58,2.55-8.92l-6-4a10.08,10.08,0,0,0-.86,2.95c-.45,3.67.64,7.86-2.3,11.29-5.19,6.07-13.7-.67-20,1.71-10,3.82-5.22,13.71-11.32,19.94a10.15,10.15,0,0,1-10.27,2.84c-2.83-.75-5.52-2.42-8.72-2.19-5.29.37-7.15,5.69-8.79,9.49-.92,2.13-2.13,4.56-4.45,5.84a6.59,6.59,0,0,1-.71.34l1.38,7C576,475.63,578.87,470.05,580.23,466.77Z"/>
      </g>
    </g>
  </g>
</svg>
